<svg xmlns="http://www.w3.org/2000/svg" viewBox="0 0 92.4 52.58"><defs><style>.cls-1{fill:#231815;}</style></defs><g id="圖層_2" data-name="圖層 2"><g id="圖層_1-2" data-name="圖層 1"><path class="cls-1" d="M28.56,39.41H22.79v12H15.33v-12H0V33.53L17,.91h5.83V32.13h5.77ZM15.33,32.13V8.4L2.94,32.13Z"/><path class="cls-1" d="M59.75,26.32c0,18.27-6.46,26.26-13.71,26.26s-13.65-8-13.65-26.26S38.75,0,46,0,59.75,8,59.75,26.32ZM46,50.12c3.1,0,5.78-5.11,5.78-23.8S49.14,2.38,46,2.38s-5.67,5-5.67,23.94S43,50.12,46,50.12Z"/><path class="cls-1" d="M92.4,39.41H86.63v12H79.17v-12H63.84V33.53L80.8.91h5.83V32.13H92.4ZM79.17,32.13V8.4L66.78,32.13Z"/></g></g></svg>