<svg xmlns="http://www.w3.org/2000/svg" viewBox="0 0 387.82 151.42"><defs><style>.cls-1{fill:#231815;}</style></defs><g id="圖層_2" data-name="圖層 2"><g id="圖層_1-2" data-name="圖層 1"><path class="cls-1" d="M45.68,17s3.62,3.78,5.78,6.37A1.29,1.29,0,0,1,50,24.5H46.73V56.08c0,6.09-1.1,10.36-8.51,11.13,0-3-.31-5.25-1-6.65a5.66,5.66,0,0,0-4.35-3v-.91s4.83.42,5.93.42c.79,0,1-.49,1-1.26V24.5H37.54a2.83,2.83,0,0,1-1.1.49V40.6c0,.42-2,1.47-3.62,1.75.73.77,3.25,3.57,4.88,5.61a1.24,1.24,0,0,1-1.37,1.12H29v4.13c2.73-.28,5.61-.7,8.55-1.05l.06.77C34,55.52,28.51,58.74,20,63.15a2.6,2.6,0,0,1-1.52,1.68L14.65,54.61c1.84-.14,4.72-.35,8.24-.77V49.08H16.17l-.42-2h7.14V40.6H21v.84c0,.63-2.31,2.24-4.52,2.24h-.78V23.24h-.06c-1.26,2.1-2.67,4.41-4.35,6.72l3.25,1.61a2,2,0,0,1-1.68,1.33V64.83c-.1.63-2.89,2.45-5.56,2.45H6V36.68A50.75,50.75,0,0,1,.47,42.14L0,41.44C4,34,7.82,22.68,9.45,15.61l6.2,5V19l5.56,3h1.68V17.78H14.6l-.42-2h8.71V11.06c-2.73.35-5.56.63-8.19.7l-.1-.84A67.61,67.61,0,0,0,30.14.77l7,7.91L37,8.82h4.46l3.25-5.6S48.41,7,50.56,9.66a1.3,1.3,0,0,1-1.41,1.12H36.65l-.32-1.54a4,4,0,0,1-2.73-.35A42.47,42.47,0,0,1,29,10.08v5.74h1.47l3.15-5.25s3.57,3.57,5.77,6.09A1.28,1.28,0,0,1,38,17.78H29v4.27h1.62l2.47-3.5,3.94,4h5.46ZM17,6.3c-.21.7-.68,1.19-2,1A58.13,58.13,0,0,1,1.52,22.05l-.47-.63A97.91,97.91,0,0,0,8.66.77ZM21,24v6.23h1.94V24Zm1.94,14.63V32.2H21v6.44ZM29,24v6.23h2.1V24Zm0,8.19v6.44h2.1V32.2ZM32.5,42.42H31.14V40.6H29v6.51h.84Z"/><path class="cls-1" d="M103.9,21.14a3.13,3.13,0,0,1-2.25,1.4c-.37,29.2-1,37-3.89,40.75a8.29,8.29,0,0,1-7.14,3.43c0-3.08-.11-5.18-.74-6.44a6.08,6.08,0,0,0-3.62-3.08v-.84c1.37.14,3.47.28,4.46.28a2,2,0,0,0,1.68-.84c1.58-2,2-11.56,2.37-34.87H91.3C90.93,42.14,89,57.2,74.87,67.35l-.53-.91a42.46,42.46,0,0,0,6.09-11.76,186.85,186.85,0,0,1-21.79,10.5A2.43,2.43,0,0,1,57,66.79L54,55.38c2.15-.07,5.67-.28,10-.56v-5H55l-.42-2H64v-6.3H61.48v.91c0,.63-2,2-5.3,2H55V18.62l7,3.5h2V17.29H54.13l-.42-2H64V10.15c-3.52.21-7.09.28-10.34.28l-.11-1c7.3-2.1,17-5.95,21.89-8.75l6.1,8.4c-.69.7-2,.63-3.57-.28-2.16.35-4.73.63-7.51.91v5.6h2.78L76.55,9.8s3.78,3.71,6,6.37a1.31,1.31,0,0,1-1.47,1.12H70.46v4.83H73l3.1-4.69L82,23.31a2.54,2.54,0,0,1-2,1.33V41.23c0,.28-1.47,1.4-4,1.75.84.84,3.62,3.64,5.46,5.68A1.33,1.33,0,0,1,80,49.78h-9.5v4.55c3.3-.28,6.82-.56,10.39-.91,2.84-9,3.36-19.68,3.42-32.49H80.33l-.47-2h4.41c0-5.32-.06-11.06-.06-17.22l9.14,1.12a2.1,2.1,0,0,1-1.94,2c-.06,5-.06,9.66-.11,14.14h2.84l3.72-5ZM61.48,24.08V30.8H64V24.08ZM64,39.55V32.76H61.48v6.79Zm6.46-15.47V30.8h2.73V24.08Zm2.73,8.68H70.46v6.79h2.73ZM70.46,47.81h2.15L75.55,43a6.13,6.13,0,0,1-1.15.07H73.19V41.51H70.46Z"/><path class="cls-1" d="M153.46,42.42c-.36.77-.89,1-2.15,1.19a41.29,41.29,0,0,1-7.14,11.07,61.18,61.18,0,0,0,12,2v.84c-3.25,1.26-5.2,4.69-6,9.73a40.06,40.06,0,0,1-13.07-6.51,45.49,45.49,0,0,1-17.43,6.79l-.26-.77A45.91,45.91,0,0,0,133.14,57a34.63,34.63,0,0,1-3.52-5,37.27,37.27,0,0,1-8.08,6l-.47-.63a49.29,49.29,0,0,0,6.14-10.58,51.84,51.84,0,0,1-2.15-7l.52-.49a27.51,27.51,0,0,0,2.63,5,69.35,69.35,0,0,0,2.73-8.47c-1.32.35-2.68.77-4,1.12a4.19,4.19,0,0,1-1.84,1.89l-2.73-11a10.55,10.55,0,0,0,2.62-.77c3-1.26,6.72-4.06,10.24-7.28-2.47,1-5.3,2-8.29,3a4.4,4.4,0,0,1-1.58,2l-1-3.36a2.06,2.06,0,0,1-1,.07,90.39,90.39,0,0,1-5.19,7.56l3,1.54A1.92,1.92,0,0,1,119.54,32V64.06c-.05.91-2.83,3.29-6,3.29h-1.37V36.12a58.86,58.86,0,0,1-6.3,5.67l-.42-.56c4.57-7.84,9-19.81,11-27.23l7.14,5.18-1.42-4.48a8.06,8.06,0,0,0,2-.7c3.89-2,9.46-9.8,11.19-14l8.19,6.44a1.68,1.68,0,0,1-2,.77A51.94,51.94,0,0,1,128.1,15.4c3.15,0,7.2,0,11.55-.07A50.8,50.8,0,0,0,146,7l7.36,8.47a1.68,1.68,0,0,1-2.26.42c-4.47,4-14.39,9.8-22.68,13,4.77,0,11.76-.21,19.16-.49a59.72,59.72,0,0,0-2.73-7.28l.47-.35c15.81,5.39,9.93,21.28,3.83,14.84a30.83,30.83,0,0,0-1-5.18c-3.1,1.05-7,2.38-11.61,3.78l4.57,1.47a2.07,2.07,0,0,1-2.1,1.68c-.31.77-.68,1.54-1,2.31h4.41l4.31-5.32Zm-29.82-35c-.26.63-.79,1.12-2,.84a50.78,50.78,0,0,1-15.07,12.25l-.36-.63A80,80,0,0,0,115.45.77ZM137,41.65a47.84,47.84,0,0,1-4.57,7.22A29.5,29.5,0,0,0,137.24,52a41.31,41.31,0,0,0,5.2-10.37Z"/><path class="cls-1" d="M204.81,21s2.78,3.57,4.25,5.95a1.21,1.21,0,0,1-1.31,1.12H179.6l-.41-2h5.88V14.77H181.5c-.42,2.87-3.26,4.76-5.68,2.38a44.19,44.19,0,0,0-3.88-8.82,55.58,55.58,0,0,1-7.77,13.3h7l3-5.88s3.46,4,5.46,6.72a1.32,1.32,0,0,1-1.42,1.12h-5.3v7.49l2.67-5.46s3.58,4.41,5.52,7.28A1.32,1.32,0,0,1,179.71,34h-6.77V54c2.94-.63,6.09-1.33,9.29-2.1l.1.7a158.14,158.14,0,0,1-18.11,12.81,2.59,2.59,0,0,1-1.47,1.82L158.6,56.85c1.79-.28,4.57-.77,8-1.54V34h-6.82l-.42-2h7.24V23.59h-3.2l-.16-.77a36.32,36.32,0,0,1-5,4.9l-.47-.49c4.1-7,7.4-19,8.4-26.46l8.82,3.85c-.16.84-.68,1.47-2,1.61,5.56,1.33,8,4.06,8.5,6.58h3.63V1.19l8.29.91a1.87,1.87,0,0,1-1.73,1.82v8.89h3.88V1.4l8.51,1c-.05.84-.42,1.47-1.68,1.75v8.54l2.1-4.34s2.47,3.15,3.78,5.32a1.24,1.24,0,0,1-1.31,1.12h-4.57V26.11h0Zm-43.9,15.54c9.93,9.31,3.57,20.59-.31,14.08a54.88,54.88,0,0,0-.32-13.87Zm12.5,14.22c.42-3.65.94-9.46,1.26-14.36l7,2.8a1.86,1.86,0,0,1-2,1.47,67.11,67.11,0,0,1-5.51,10.58ZM201.5,30.17l6.56,6.65a3.74,3.74,0,0,1-2.1,1.54V64.41c-.05.56-3.52,2.24-5.88,2.24h-1.21V61.19h-9.39v2.87c0,.91-2.79,2.87-5.57,2.87h-1V31.22l6.88,3.64h8.56Zm-12,6.65V46.9h9.39V36.82Zm9.39,22.41V48.87h-9.39V59.23Zm-7.24-33.12h3.88V14.77h-3.88Z"/><path class="cls-1" d="M227,10.08s3.1,3.29,4.94,5.6a1.27,1.27,0,0,1-1.37,1.12h-19l-.42-2h13.12Zm-4.2,13.72,2.57-4.55s3,3.15,4.78,5.39a1.29,1.29,0,0,1-1.36,1.12H213.52l-.42-2Zm2.57,4.55s3,3.15,4.78,5.39a1.29,1.29,0,0,1-1.36,1.12H213.52l-.42-2h9.71Zm32.5,10.92a58,58,0,0,1,3.42,5.46A1.19,1.19,0,0,1,260,45.85H246.44c-1.84,9-6.3,16-18.17,21.08l-.52-1c8.08-5.74,11.08-12.39,12.23-20.1h-9l-.26-1.33a4.81,4.81,0,0,1-1.11.56v16c-.05.63-3,2.38-5.14,2.38h-1.1V59.72h-3.68V64.2c0,.77-2.57,2.52-5.09,2.52h-.89v-28L219.87,42h3l2.79-3.92,5.72,5.74-.05.07h8.92c.37-3.71.42-7.7.48-12h-2.47l-1.94,3.64L230,31.15A12.2,12.2,0,0,1,232,29V9.8l7.35,1a1.6,1.6,0,0,1-1.47,1.54V30h12.6l2.31-3.64,5.83,5.53c-.37.63-.79.84-1.79,1v8.89ZM215.72,2.38c15.49-.77,9.61,15.47,3.1,9.8a22.5,22.5,0,0,0-3.41-9.45Zm7.62,55.38V44h-3.68v13.8Zm22.47-32.84c0,.56-1.94,2.31-5.09,2.31h-1.16V2l7,3.57h3l2.78-4,5.83,5.81a3.18,3.18,0,0,1-1.89,1.33V24c-.05.49-3.15,2-5.14,2h-1.05V22.82h-4.36Zm0-17.36v13.3h4.36V7.56Zm1.89,24.36a103.78,103.78,0,0,1-.95,12H251v-12Zm.1,17.23c18,4.06,13.76,21.14,7.14,16-1.47-5.32-4.83-11.41-7.61-15.55Z"/><path class="cls-1" d="M277.2,49.78c3.41,4,9.35,5.25,21.42,5.25,5.36,0,9.66-.14,14.92-.63v.7c-3.36,1-5.31,5.74-5.68,10.64H295.58c-11.66,0-15.44-3.85-19.17-12.81-.73-1.82-1.36-1.54-2.1.07-.94,2.45-3.25,7.56-5,12.18a1.64,1.64,0,0,1-.73,1.61L263,54.68c4.31-2.1,10.56-6,11.92-6h.37c9-7.08,17.75-17.79,22.37-28.29H266.75l-.47-2h31.45l4.46-5.39,6.72,8.19c-.36.77-.89,1-2.25,1.19a60.06,60.06,0,0,1-29.77,27ZM279.93.91c18.38,2.45,11.82,21.42,4.47,14.35a36.93,36.93,0,0,0-4.84-14Z"/><path class="cls-1" d="M358.84,6.72s4.36,4.41,7,7.49a1.42,1.42,0,0,1-1.53,1.12H316.47l-.42-2H355Zm-6.77,32.13,7.35,7.35a3.81,3.81,0,0,1-2.31,1.68V64.34c-.05.49-4.1,2.1-6.62,2.1h-1.36V62.38h-16.7v1.54c0,.91-3.41,3.15-6.56,3.15h-1.05V40l8,4.06h15.7Zm-.68-21.28s4,3.85,6.45,6.58a1.3,1.3,0,0,1-1.47,1.12h-31l-.42-2h22.95Zm.31,10.29s4,3.85,6.46,6.58a1.37,1.37,0,0,1-1.47,1.12H325.4l-.42-2h23.2Zm-2.57,32.56V46h-16.7V60.42ZM334.79,1c16.6-.63,10.09,16.8,3.15,10.43a21.32,21.32,0,0,0-3.46-10.08Z"/><path class="cls-1" d="M1,101.5c15.17.7,9.61,16.31,3.41,10.78A26,26,0,0,0,.63,101.85Zm19.16-6.58c-2.36,9.24-6.51,26.25-7.3,30.45a39.27,39.27,0,0,0-.89,7.14c0,3.78,2.57,5.68,2.42,11.56-.06,3.57-2.16,6-5.25,6-1.42,0-2.94-.77-3.52-3.5,1-6.79.79-13.09-.47-14.21a5.46,5.46,0,0,0-2.84-1.2V130H4.83c.89,0,1.1,0,1.79-1.47C8,125.65,8,125.65,19.43,94.64ZM4.94,86.45c16.17-.56,11.7,16.1,5,11.34A33.44,33.44,0,0,0,4.57,86.87Zm43.31,34c-.36.77-.89,1-2.2,1.19a49.55,49.55,0,0,1-8.3,15.55,46.93,46.93,0,0,0,13.39,3.22v.84c-3.31,1.26-5.46,4.62-6.41,9.73-5.19-1.89-9.5-4.2-12.91-7.91a44.17,44.17,0,0,1-18.27,8.33l-.27-.84a44.22,44.22,0,0,0,15.23-12c-2.68-4.56-4.57-10.58-5.78-18.91H18l-.47-2H37.38l4.2-5.25ZM16,116.2c4-7.7,7.09-19,7.72-31.36L33.92,88a2,2,0,0,1-2.05,1.68c-.21.91-.42,1.75-.63,2.59h8.4l3.57-4.34,6.2,6.72a3.23,3.23,0,0,1-2.1,1.19c-.79,8.82-2.16,13.86-4.94,16-1.73,1.4-3.78,2-6.93,2,0-2.52-.21-4.83-1-6.09a8.24,8.24,0,0,0-4.83-3.08v-.77c2.1.21,5.46.49,6.51.49a2.3,2.3,0,0,0,1.68-.49c.89-.84,1.68-4.34,2.26-9.66H30.72c-3.15,11-7.78,17.92-14.23,22.47Zm7.67,3.5c1.68,6.51,4.57,11,8.29,14a51,51,0,0,0,5.73-14Z"/><path class="cls-1" d="M95.19,90.37s4.72,4.62,7.61,7.84a1.44,1.44,0,0,1-1.57,1.12H76.5a74.87,74.87,0,0,1-4.1,8.54l2.15,1H86.84l3.46-5.25L97.44,111a3.36,3.36,0,0,1-2.31,1.68v27.31c0,6.58-1.15,10.29-9.45,11.27-.21-3.36-.47-5.74-1.36-7.28s-2-2.66-4.83-3.36v-.84s5.67.42,6.88.42c.84,0,1-.49,1-1.4v-7H73c-.84,7.14-3.47,14.56-11,19.67l-.31-.49c3.83-7.77,4-17.93,4-27.24V118a47.88,47.88,0,0,1-11.24,9.87l-.42-.63c6.51-7.42,11.18-17.71,14.28-27.86H55l-.42-2H68.83a128.19,128.19,0,0,0,2.89-12.81l10.13,3.85a1.84,1.84,0,0,1-2,1.47c-.74,2.45-1.58,5-2.58,7.49H91Zm-7.77,39.41V121.1h-14v2.59c0,2-.06,4-.21,6.09Zm-14-19v8.33h14v-8.33Z"/><path class="cls-1" d="M155.2,92.89a3.34,3.34,0,0,1-2.1,1.33c-.58,13.16-1.58,18.27-4.31,20.72a8,8,0,0,1-3.41,1.89l5.62,5.74A3.18,3.18,0,0,1,149,124v24.44c-.06.56-3.89,2.31-6.46,2.31h-1.31v-4.9H120.8v2.17c0,1.05-3.46,3.36-6.72,3.36h-1.15V119.21l-.32.21-3.88-10.15a4,4,0,0,0,1.47-3.43V89.25l6.82.91a70.31,70.31,0,0,0,7.25-6l6.2,8.68c-.74.7-2,.63-3.57-.28a92.21,92.21,0,0,1-9.88.7v14.84c1.89-.63,4-1.4,6.15-2.17a49.16,49.16,0,0,0-2.68-9l.52-.35c14.6,6.93,8.35,22.26,2.79,15.4,0-1.05-.11-2-.21-3.15-2.42,2.45-5.52,5.32-9,8.33l6.67,3.36h19.37l2.26-3.29h-.58c0-2.73-.16-4.9-.79-6.16a5.68,5.68,0,0,0-3.36-2.8c-2.41,4.48-6.35,8.4-13,11.48l-.47-.84c8.82-7.91,9.45-16.8,9.61-26.25h-3.73l-.47-2h15.43l3.57-4.41Zm-34.4,29.54V132h6.62v-9.59Zm0,21.5h6.62V134H120.8Zm14-21.5V132h6.41v-9.59Zm6.41,21.5V134h-6.41v9.94Zm.68-51.32c-.32,5.32-1.05,10.36-3.26,14.84,1.26.07,3.05.21,3.89.21a1.93,1.93,0,0,0,1.47-.49c.94-1,1.57-5.53,2-14.56Z"/><path class="cls-1" d="M200.82,84.42s5,5,8,8.4a1.47,1.47,0,0,1-1.63,1.12H186.43v12.11c26.1,5,22,28,13,22.19a84.2,84.2,0,0,0-13-20.44v40.54c0,.7-2.57,3-6.62,3h-1.52V93.94H158.92l-.42-2h37.91Z"/><path class="cls-1" d="M261.19,100.8a3.32,3.32,0,0,1-2.36,1.47c-.37,29.4-1,40.75-4.1,45-2,2.73-4.46,3.92-8.4,3.92,0-3.29-.31-5.6-1.26-7s-2.94-2.8-5.67-3.57l.06-.84c2.52.28,6.09.56,7.45.56a2.24,2.24,0,0,0,1.94-.91c1.89-2.24,2.37-15.13,2.68-38.93h-8.08a52.71,52.71,0,0,1-9.61,14.77l-.32-.28v28.36c-.05.63-3.46,2.59-5.93,2.59h-1.16v-5.53H220v4.83c0,1.05-2.68,3.22-5.73,3.22h-1.1V95l6.62,3.64c.26-3.92.47-9.45.63-13.44l10.13,3.22a2,2,0,0,1-2.26,1.75c-1.57,2.45-3.94,6-5.83,8.68h3.47L229.16,94l6.46,6.79a3.64,3.64,0,0,1-2.1,1.54V114a155.55,155.55,0,0,0,6.15-29l9.76,3.78a1.9,1.9,0,0,1-2.1,1.47,81.27,81.27,0,0,1-3,8.26h6.56l3.94-5.32Zm-41.21,0v17.36h6.45V100.8Zm6.45,37.67V120.12H220v18.35Zm10.87-25.7c16.59,5.11,9.51,22.27,3,14.77a38,38,0,0,0-3.47-14.42Z"/><path class="cls-1" d="M302.67,136.86c2.2,1.18,2.88,2.45,2.88,4.34,0,4.55-3,6.58-13.8,6.58h-6.1c-6,0-8.45-1.26-8.92-7a61.53,61.53,0,0,1-12.34,7.28l-.42-.77a67.64,67.64,0,0,0,12.71-11.76V98.28l9.5,1.19a1.9,1.9,0,0,1-1.78,1.89V124.6A118.59,118.59,0,0,0,297.94,89l9.77,4.55c-.27.84-.79,1.4-2.21,1.33-4,13.72-10.45,28-21.1,39.07v1.68c0,1.61.57,2.1,2.52,2.1h5.67c1.68,0,3.25,0,4.2-.07a2.43,2.43,0,0,0,2-1.12c.79-1.33,1.89-4.7,3.15-9.18h.53Zm-30.93-28.78c4.36,11.06,3.52,19.11.89,23.31-1.94,3.15-5.46,2.66-6.93-.49a6.83,6.83,0,0,1,1.47-7.7c2-2.38,4.36-8.47,4.05-15ZM284,86.17c17,6.09,9.76,23.8,3.15,16a43.43,43.43,0,0,0-3.57-15.68Zm18,23.66c18.16,9,10.13,29.13,2.83,19.67a55.06,55.06,0,0,0-3.31-19.32Z"/><path class="cls-1" d="M359,118.65s4.31,4.2,6.93,7.14a1.38,1.38,0,0,1-1.52,1.12H353.8a25.49,25.49,0,0,1-4.41,10.71c21.95,5,13.55,16.53,7.51,13a58.73,58.73,0,0,0-13.13-7.84c-5.09,3.43-12.81,6.3-24.67,8.4l-.21-1.05c8.82-3.15,14.75-6.37,18.84-9.8a107.45,107.45,0,0,0-12.07-3.65c1.26-2.3,3-6,4.57-9.8H316.47l-.42-2h15c1.36-3.29,2.62-6.51,3.36-8.82h-5.2v.28c0,.84-3.36,2.94-6.35,2.94h-1v-23l7.87,3.92h2.52v-8.4H317.52l-.42-2h37.44l3.88-6.58s4.41,4.41,7.09,7.42A1.42,1.42,0,0,1,364,91.91H350v8.4h2.73L356,95.55l6.83,6.79a3.6,3.6,0,0,1-2.1,1.54v13c-.05.49-3.83,2-6.14,2h-1.32v-2.73H337.63l6.56,2.94c-.21.84-.73,1.47-2.46,1.26l-2,4.62H346c.26-1.82.42-3.64.53-5.6l9.92,1.05a2.11,2.11,0,0,1-1.94,2c-.11.91-.27,1.75-.37,2.59h1.05Zm-29.77-4.48h3v-11.9h-3Zm9.61,12.74c-1.37,3-2.84,6.23-4.15,8.83,2.52.14,4.78.34,6.88.55a23.58,23.58,0,0,0,4.15-9.38Zm.63-26.6h3.2v-8.4h-3.2Zm3.2,13.86v-11.9h-3.2v11.9Zm7.3-11.9v11.9h3.25v-11.9Z"/><path class="cls-1" d="M372.86,118.09c0-5.53,3.36-9.94,7.51-9.94s7.45,4.41,7.45,9.94-3.31,10-7.45,10S372.86,123.62,372.86,118.09Zm2,0c0,4,2.47,7.35,5.52,7.35s5.46-3.36,5.46-7.35-2.47-7.28-5.46-7.28S374.85,114.1,374.85,118.09Z"/></g></g></svg>