<svg xmlns="http://www.w3.org/2000/svg" viewBox="0 0 367.51 172.33"><defs><style>.cls-1{fill:#231815;}</style></defs><g id="圖層_2" data-name="圖層 2"><g id="圖層_1-2" data-name="圖層 1"><path class="cls-1" d="M2.43,60.8c1.42,2.47,5.27,7,9.4,7,1.57,0,3.71-.57,6.84-2.28C37.34,55.48,58.72,36.1,83.23,36.1c26.22,0,43.89,24.7,43.89,50.92,0,25.84-11.4,40.85-25.51,51.3-16.82,12.54-44.46,14.06-64.84,11.59l-.43-4c20.24-3.8,35.77-8.55,50.59-21.66,10.4-9.12,18.81-22.42,18.81-40.85,0-17.1-8-35.53-23.08-35.53-19.67,0-41.33,28.5-48,36.86-6.27,7.79-9,13.11-14.82,13.11-6.7,0-16.53-10.07-18.95-19.76C-.57,72.58.15,66.31.43,61.75Z"/><path class="cls-1" d="M146.78,63.27c1.42,2.47,5.27,7,9.4,7,1.57,0,3.71-.57,6.84-2.28,18.67-10.07,40-29.45,64.55-29.45,26.23,0,43.9,24.7,43.9,50.92,0,25.84-11.4,40.85-25.51,51.3-16.82,12.54-44.46,14.06-64.84,11.59l-.43-4c20.24-3.8,35.77-8.55,50.59-21.66,10.4-9.12,18.81-22.42,18.81-40.85,0-17.1-8-35.53-23.09-35.53-19.66,0-41.32,28.5-48,36.86-6.27,7.79-9,13.11-14.82,13.11-6.7,0-16.53-10.07-18.95-19.76-1.43-5.51-.71-11.78-.43-16.34ZM254.37,39c-3.14-6.08-6.56-13.49-14.54-21.28l.85-2.28c7.27,1.14,16.11,4.94,20.95,9.69a15.18,15.18,0,0,1,5,10.83c.14,4.37-1.85,8.74-5.41,8.74C258.5,44.65,256.5,42.94,254.37,39ZM266.19,22c-2.56-4.18-7.26-12.16-15.1-18.81L251.8,1c8.41,1,16.53,3.42,21.66,7.6A13.77,13.77,0,0,1,279,19.76c.14,4.37-2.28,8.36-5.56,8.36C270.61,28.12,268.76,26.22,266.19,22Z"/><path class="cls-1" d="M333.31,2.47,334.45,0c5,.19,9.83,1,13.68,3.42,9.83,6.27,17.24,19,17.24,26.79,0,7-5.41,8.55-12.25,14.44C342.29,54,326.47,69.54,320.34,77.52c-3.56,4.56-5.13,7.22-5.13,9.69,0,2.85,2.43,5.51,5.28,8,13.11,11.4,30.92,23.94,40.47,39.9,5.41,9.12,6.55,14.63,6.55,21.66,0,6.65-2.85,15.58-12.25,15.58-4.56,0-8.13-3.61-10.12-7.79-1.85-4.37-3.56-8.55-7.27-16.91-5-11-16.53-26.22-32.92-45a19.46,19.46,0,0,1-5-12.16c0-4.18,1.14-7.79,4.41-13.3,7.84-12.73,28.08-42,33.06-51.11,2-3.61,2.85-5.89,2.85-8.74C340.29,12.73,336.45,7.22,333.31,2.47Z"/></g></g></svg>