<svg xmlns="http://www.w3.org/2000/svg" viewBox="0 0 464.54 150.65"><defs><style>.cls-1{fill:#231815;}</style></defs><g id="圖層_2" data-name="圖層 2"><g id="圖層_1-2" data-name="圖層 1"><path class="cls-1" d="M32.24,47.53c-.37.91-1.21,1.41-2.94,1.2C26.62,51.46,22,53.84,17,55.1c3.88.84,9,1.12,16.07,1.12,6.19,0,11.13-.07,17.22-.56v.77c-3,.84-4.73,4.69-5.1,8.47H30.3c-12.34,0-16.65-2.8-20.8-10-.84-1.54-1.41-1.33-1.89.14-.68,2.17-1.36,5.39-2.31,9.1a1.25,1.25,0,0,1-.47,1.4L0,56c2.26-1.26,5.46-3.64,7.09-4.55A67,67,0,0,0,10.5,36.12H8.45L6.56,38.71,1.31,34.16a9.23,9.23,0,0,1,1.95-1.4c1.36-3.29,3.09-8.19,4.14-11.55H1.58l-.48-2H7.3L10,15.54l5.51,6.65A3.73,3.73,0,0,1,13,23.31c-1.05,3-2.73,7.56-4,10.85h1.2l3.26-4.27L19,35.77c-.32.63-.79.84-1.89,1A38.14,38.14,0,0,1,9,51.32a3.61,3.61,0,0,1,1.05.7,14,14,0,0,0,6.35,3l-.15-.49c3.15-2.94,6-8.06,7.4-11.84H16.54l-.42-2h6.77V33.6h-4l-.42-2h4.41V24.5l8.09.91c-.05.77-.37,1.33-1.47,1.61v4.62h3.73V24.5l8.08.91A1.54,1.54,0,0,1,39.85,27v3.57L42,27.16s3.1,3.08,5,5.32a1.24,1.24,0,0,1-1.37,1.12H39.85v7.07L43.26,35s3.94,3.85,6.36,6.58a1.37,1.37,0,0,1-1.47,1.12h-24ZM2.62,1.47C18.17,3.22,11.92,19,5.72,12.88A27.17,27.17,0,0,0,2.26,1.82Zm28.78,18c-2.31,1.47-6.78,4.13-11.76,6.72a4.17,4.17,0,0,1-1.53,1.68l-2.57-7.63a3.27,3.27,0,0,0,1.37-3.08V.7l6.77,3.43h1.78L27.93.7l4.83,4.76V.77l6.62,3.36h1.36L43.26.56l5.36,5.32a3.33,3.33,0,0,1-1.73,1.19v6.51c-.06.56-2.84,2.1-4.68,2.1h-1V13.86H38.64v3.08c0,.84.16,1.12,1,1.12h2.1A14.84,14.84,0,0,0,43.63,18c.32,0,.95-.07,1.26-.07a8.74,8.74,0,0,0,1.31-.35h.48l.26.07c1.47.91,1.94,1.54,1.94,2.8,0,2.73-2.1,3.71-7.93,3.71h-3.2c-4.36,0-5-1.54-5-6V6.3A3.17,3.17,0,0,1,31.4,7v6.58c0,.56-2.73,2.1-4.52,2.1h-.94V13.86h-3v5.32c2.52-.14,5.47-.42,8.41-.63ZM25.94,11.9V6.09h-3V11.9Zm3.57,28.84h3.73V33.6H29.51Zm3.67,2.73c24.52,2,12,17.16,7.14,10a23.41,23.41,0,0,0-7.4-9.25ZM38.64,6.09V11.9h2.58V6.09Z"/><path class="cls-1" d="M71.19,29.05q-2.2,2.41-5.83,6.09V55.31c0,6.51-.94,10.15-7.92,11a24.76,24.76,0,0,0-.9-7.07,4.77,4.77,0,0,0-3.46-3.15v-.91s3.62.28,4.57.28c.68,0,.89-.35.89-1.05V41.58c-.74.63-1.52,1.33-2.31,2a2.91,2.91,0,0,1-1.47,2.1L52.4,34.93c1.25-.35,3.46-1,6.14-2V18.9H53.13l-.42-2h5.83V.14l8.71,1.12a2.05,2.05,0,0,1-1.89,2V16.94l2.52-5.88s1,1.4,2.16,3.15V1.4l6,3.15H94.29L97,.7l5.67,5.67a3.55,3.55,0,0,1-2.15,1.47v9.31c0,.56-2.78,2.17-4.73,2.17h-.94V18.13H75.71v1.19c0,.7-2.58,2.31-4.89,2.31H70V18.9H65.36V30.52c1.89-.7,3.84-1.4,5.73-2.17ZM98.07,46.2s3.1,3.43,4.94,5.82a1.23,1.23,0,0,1-1.36,1.12H88V64.06c0,.49-1.83,2.17-4.93,2.17H82V53.14H68.88l-.42-2H82V44.8H72l-.42-2h6.51l-.05-.07a28,28,0,0,0-1.63-8.19H70.25l-.42-2H82V26.88H72.77l-.42-2H82v-6.3l7.87.84c0,.91-.42,1.54-1.68,1.82v3.64h4.2L95,19.81s3,3.57,4.67,6a1.24,1.24,0,0,1-1.37,1.12H88.15v5.74h6.09l3-5.46s3.36,3.71,5.36,6.3a1.31,1.31,0,0,1-1.42,1.12H91l4.72,2.94a1.51,1.51,0,0,1-1.94,1,55,55,0,0,1-5.2,4.34h4.94l2.78-5s3.1,3.43,4.94,5.81a1.32,1.32,0,0,1-1.42,1.12H88v6.38h7.35ZM75.71,6.51v9.66h2.78V6.51Zm3.36,28.07c4.57,2.38,4.88,6.3,3.52,8.26h4.14c.74-2.52,1.47-5.88,2-8.26Zm7.77-18.41V6.51H83.69v9.66ZM92,6.51v9.66h2.78V6.51Z"/><path class="cls-1" d="M135.51,24.08a1.8,1.8,0,0,1-1.63,1.33V64.55c-.11.56-3.52,2.1-6.3,2.1h-1.47V32.34a73.12,73.12,0,0,1-20.69,21.08l-.32-.56c10.45-11.49,19.12-29.13,21.79-43.55H106.21l-.42-2H142.7L147.06,0s4.88,4.9,7.82,8.19a1.41,1.41,0,0,1-1.58,1.12H137a88.52,88.52,0,0,1-5.1,13Zm0,3.08c24.88,4.69,21.26,26.33,13,20.93-2.79-7.21-8.51-15.33-13.44-20.44Z"/><path class="cls-1" d="M199.56,23.31s5,5,7.92,8.33a1.43,1.43,0,0,1-1.57,1.12h-26L188,36.68A1.87,1.87,0,0,1,186,38c-3.78,5.39-10.82,11.91-16.91,16,6.3-.28,15.23-.77,24.89-1.4A61.25,61.25,0,0,0,188.06,42l.42-.42c24.31,7.15,18,31.44,9.19,23A54,54,0,0,0,194.94,55,257.74,257.74,0,0,1,167,65.25a3.3,3.3,0,0,1-1.2,1.19l-3.73-12.32a9,9,0,0,0,2.47-1c4.25-2.87,10.6-13.59,12.91-20.38H158.92l-.42-2h19.74V16.94h-15.7l-.42-2h16.12V.07l10.24,1.05a2,2,0,0,1-1.94,2V15h5.88l4.3-7.35s4.83,4.9,7.72,8.19a1.45,1.45,0,0,1-1.58,1.12H186.54V30.8h8.66Z"/><path class="cls-1" d="M214,13c2.31,7.84,2.21,14,.74,17.22-1,2.38-3.68,2.66-4.83.49a5.36,5.36,0,0,1,1-5.67,26,26,0,0,0,2.32-12Zm46.1,1.47a2.57,2.57,0,0,1-1.73,1.19V35.14c-.05.49-2.68,1.82-4.88,2.17l4.3,4.34a3.43,3.43,0,0,1-2,1.54V63.92c-.1.56-3.78,2.24-6.19,2.24h-1.26V62H238v1.54c0,.91-3.21,3-6.25,3h-1.05V38.85a9.22,9.22,0,0,1-1.37.14h-1V21.35c-.63,2.31-2.57,3.22-4.2,1a31.19,31.19,0,0,0-.73-7.91V64.06c0,.77-2.89,2.59-5.51,2.59h-1.42V.21l8.87,1.19c-.1,1-.52,1.68-1.94,2v8.05a11.47,11.47,0,0,1,4.93,6.65V8.89l7.25,3.71h1.31a4.23,4.23,0,0,1-1.94-1.12A31.59,31.59,0,0,0,231.05.77l.37-.35c12.18,1,11,11.06,6.93,12.18h6.15c.84-3.78,1.83-9,2.36-12.6l9.87,3.5a1.76,1.76,0,0,1-2.05,1.33C252.48,7,249,10.15,246,12.6h5l3-4.27Zm-8.71,20.65V33.88H235.2v2.24c0,.35-.47.84-1.15,1.33l4.2,2.17h9.55l3.26-4.83ZM235.2,14.56v3.15l.53-.28a11.34,11.34,0,0,1,4.57,5.88V14.56Zm5.1,12.53c-.63,1.75-2.26,2.38-3.63.49a31.76,31.76,0,0,0-1.47-9.45V31.92h5.1Zm8,14.49H238v8.13h10.34Zm0,18.49v-8.4H238v8.4Zm-1.89-45.51V28.49c.52-2.94,1.05-7.35,1.42-11.27l3.57,2V14.56Zm0,17.36h5V22.4a45.21,45.21,0,0,1-4.2,6.86l-.79-.49Z"/><path class="cls-1" d="M266.86,13.51c2.73,8.4,2.31,14.84.57,18.06-1.26,2.31-4,2.38-5.19,0a5.61,5.61,0,0,1,1.26-6,22.46,22.46,0,0,0,2.62-12Zm44.26,27c-.37.77-1.05.84-2.05.56a44.29,44.29,0,0,1-8.08,5,26.41,26.41,0,0,0,12,9.74l-.11.77c-2.67,1-4.77,4.34-5.67,9.24-7.92-6.51-11.49-16.66-13.28-34h-4.46V55c2.1-.56,4.3-1.12,6.56-1.68l.11.7a156.61,156.61,0,0,1-11.87,11.27,3.81,3.81,0,0,1-1.21,1.12L279.83,57c2.15-1.47,2.52-2.38,2.52-4.34V23.24c-1,2.1-3,2.73-4.73.28a35.56,35.56,0,0,0-.94-9.8V64c0,.77-3.05,2.66-5.83,2.66h-1.47V.21l9.24,1.19a2.14,2.14,0,0,1-1.94,2v8.26l.1-.07A12.92,12.92,0,0,1,282.35,18V1.68l7.82,4.06h10.45l3.2-4.62,6.46,6.58a3.32,3.32,0,0,1-2,1.47v23.1c-.05.49-2.15,1.89-4.3,2.45Zm-10-23V7.7H289.49v9.87ZM289.49,29.89h11.65V19.53H289.49Zm5.25,2A42.09,42.09,0,0,0,299.67,44a76.54,76.54,0,0,0,3.84-9.24,7.17,7.17,0,0,1-1.16.14h-1.21V31.85Z"/><path class="cls-1" d="M318.68,25.13c6,1.26,12,5,13.91,9.66a9.82,9.82,0,0,1,.53,5.46c-.37,1.61-1.42,3.36-3.36,3.36-1.42,0-2.63-.84-3.36-3.15a46.19,46.19,0,0,0-8.09-14.56Z"/><path class="cls-1" d="M357.84,21.63A1.93,1.93,0,0,1,356.16,23V63.85c-.05.7-3.15,2.8-6,2.8h-1.41V29.33a50,50,0,0,1-7.56,8.19l-.53-.56c4.46-8.82,8.93-23,10.92-36.89L362,4.41a1.87,1.87,0,0,1-2.15,1.47A96.28,96.28,0,0,1,354.38,20Zm31.77,34.52c2.15,4.76,2.41,7.35,1.36,8.75-2.83,3.78-7.87.56-10.5-2.38-8-9.31-11.39-21.92-12.76-36.48L358,27.58l-.58-1.82,10.19-1.61c-.63-7.21-.79-14.91-.79-22.89l9.55,1.54a2.17,2.17,0,0,1-1.89,2c-.1,6.23-.05,12.39.37,18.13l4.52-.7,3.57-7.49s5,3.64,8.19,6.37a1.66,1.66,0,0,1-1.42,1.47L375,24.92c1,11.55,3.62,21.56,9.87,27.94.79,1,1.21,1,1.78-.14a91,91,0,0,0,3.89-9.11l.47.14ZM377.79,2.38c15.55-.14,10.66,16,4.2,10.85A28,28,0,0,0,377.43,2.8Z"/><path class="cls-1" d="M418.32,1,426,8.4c-1.1,1.75-4,2.73-7.51,3.15v1.89c1.53,21.14,10,34.16,25.57,42.85l-.16.7c-3.78.77-6.14,4-7.5,9.66-6-4.83-13.34-17.44-16.07-30-4.15,12.26-13.81,24-26,29.83l-.27-.56C405.46,57.34,415.8,35,416.9,12.81l0-3.64H404.51l-.42-2h11.29Z"/><path class="cls-1" d="M449.93,25.13c6,1.26,12,5,13.91,9.66a9.82,9.82,0,0,1,.53,5.46C464,41.86,463,43.61,461,43.61c-1.42,0-2.63-.84-3.36-3.15a46.19,46.19,0,0,0-8.09-14.56Z"/><path class="cls-1" d="M45.63,128s3.57,3.85,5.62,6.51a1.31,1.31,0,0,1-1.42,1.12H40.69v12.54c0,.7-3.15,2.52-5.77,2.52H33.6V135.59H24.68l-.42-2H33.6V124H29.3a28.71,28.71,0,0,1-4.73,6.93l-.47-.35v10.23c0,5.67-.89,8.89-7.72,9.73-.16-2.73-.42-4.76-1.15-5.95s-1.84-2.24-4.26-2.8v-1s4.94.42,6,.42c.84,0,1.05-.42,1.05-1.4V128H9.35c-.79,7.84-2.94,16.11-8.67,22.2l-.52-.56c3.52-9.73,3.62-22.06,3.62-32.7V105.07a23.94,23.94,0,0,1-3,2.66l-.58-.56c2.83-5.6,5.62-14.42,7-23.24l8.45,3.5a1.79,1.79,0,0,1-2,1.47c-.47,1.19-.94,2.38-1.47,3.5h1.63L17,88.06l5.67,6.58a2.45,2.45,0,0,1-2.05.84,54.25,54.25,0,0,1-7.14,6.72h3.94l2.84-4.41,6.14,6.3a4,4,0,0,1-2.31,1.61v6c4-5.25,5.46-12.32,5.78-19.67H23.94l-.47-2H40.64L44,85.89l5.82,6.3a2.81,2.81,0,0,1-1.94,1.19c-.31,10.15-.94,14-3.2,16a8.28,8.28,0,0,1-5.83,1.89c0-2.45-.1-4.62-.73-5.74a4.87,4.87,0,0,0-3-2.52v-.84a36.31,36.31,0,0,0,3.73.21c.68,0,1-.07,1.21-.42.58-.63.89-3.57,1.1-9.94H37.54c-1.52,9.52-5.83,16.8-13.44,20.93v16.66a111,111,0,0,0,2.47-17.43l7,3.08v-4l8.82,1A1.82,1.82,0,0,1,40.69,114v8h1l2.94-5.18s3.36,3.57,5.35,6A1.31,1.31,0,0,1,48.51,124H40.69v9.66h1.84ZM11.24,94.36a46.46,46.46,0,0,1-3.78,6.3l3.25,1.54h1.21A71.93,71.93,0,0,0,14,94.36ZM9.77,116.9c0,2.8-.06,5.88-.27,9.1h1.89V116H9.77Zm0-2.87h1.62v-9.87H9.77Zm6.56-9.87V114H18v-9.87ZM18,126V116H16.33v10Zm15.59-4v-5.53a1.75,1.75,0,0,1-1.41.42,50.21,50.21,0,0,1-2,5.11Z"/><path class="cls-1" d="M95.5,102.48H79.7A7.62,7.62,0,0,1,75.44,104h-.78V99.61h-.32A87,87,0,0,1,68,110.25l-.53-.28c.63-4.48,1.37-11.41,1.53-14.77l5.67,2.31v-5a5.33,5.33,0,0,1-2-.56c-1.58.42-3.47.84-5.51,1.26v19.25h1.31l2.78-5s3.1,3.43,4.94,5.81a1.32,1.32,0,0,1-1.42,1.12H67.1v2.87h.05c12.76,6,6.61,18.69,1.73,12.53a40.08,40.08,0,0,0-1.78-10.71v29.2c0,.56-2,2.31-4.94,2.31h-1.1V130.13a49.1,49.1,0,0,1-7.93,11l-.58-.77c3.63-7,6-16.74,7.3-25.91H53l-.42-2h8.46V94.15c-2.73.35-5.57.56-8.19.63l-.16-.91a76.53,76.53,0,0,0,17-9.8l4.94,6.23V85.54l5.88,3.08H95l2.68-3.71,5.51,5.46a3.17,3.17,0,0,1-1.68,1.19v10.22c-.05.49-3.1,1.89-5,1.89h-1Zm-40.69-6c10.82,7.35,4.62,18.41.58,12.39a44.51,44.51,0,0,0-1.16-12.11Zm43,34.3s3.36,3.36,5.46,5.74a1.3,1.3,0,0,1-1.42,1.12H91.14v10.86c0,.42-2,2.1-5.56,2.1H84.32v-13H73.45l-.42-2H84.32v-5.75H75.65l-.42-2h7.25a4.07,4.07,0,0,1-2.2-1.47,15.69,15.69,0,0,0-1.47-7.7H74l-.42-2H84.32v-5.67h-8l-.42-2h8.4v-6.72l8.24.91A1.62,1.62,0,0,1,91.14,105v4.2h2.31l2.89-4.76s3.26,3.29,5.31,5.6a1.32,1.32,0,0,1-1.42,1.12H91.14v5.67h3.42l2.94-4.9s3.36,3.36,5.46,5.74a1.32,1.32,0,0,1-1.42,1.12H95l4.14,1.12a1.93,1.93,0,0,1-1.94,1.54A39.87,39.87,0,0,1,91,128h3l2.63-4.41s3,3.08,4.88,5.25a1.23,1.23,0,0,1-1.37,1.12h-9v5.75h3.63ZM80.22,90.58v9.94H82V90.58ZM89.73,128A85,85,0,0,0,91,118.79H81.8c6.46,2.38,4.78,8.54,1.73,9.17ZM86.84,90.58v9.94h1.84V90.58Zm8.66,9.94V90.58H93.61v9.94Z"/><path class="cls-1" d="M149.42,121.66a3.81,3.81,0,0,1-2.1,1.54v24.86c0,.56-3.94,2.45-6.56,2.45h-1.32v-29H121.85c-1.31,12.11-5.35,23-15.43,29.06l-.37-.49c7.09-10.08,8.56-23.88,8.56-37.95V86l9.66,1.19a2.14,2.14,0,0,1-1.94,2v15.4h15V84.21l10,1c-.1,1-.47,1.82-2.1,2.17v15.89c.63.7,1.26,1.47,1.79,2.17a1.27,1.27,0,0,1-1.37,1.12H122.33v5.6c0,2.52-.11,5-.32,7.42h16.91l3.46-5Z"/><path class="cls-1" d="M175,92.89s3.36,3.57,5.4,6.09A1.3,1.3,0,0,1,179,100.1H158.34l-.42-2H172Zm29.24,19.74s2.94,3.64,4.57,6a1.23,1.23,0,0,1-1.37,1.12H176.93l-.37-1.61H160.28l-.42-2h10.66l2.63-4.55s3,3.15,4.77,5.39a1.27,1.27,0,0,1-.42.77h4.89c.57-3.71,1.26-8.68,1.89-13.65h-5l-.47-2h5.67c.47-3.5.84-6.93,1.15-9.8h-6.82l-.42-2h19l3.31-6.09s3.78,4.13,6,6.93a1.37,1.37,0,0,1-1.47,1.12H192.68c-.32,2.94-.74,6.3-1.21,9.8h3.36l3.1-4.27,6,6a2.84,2.84,0,0,1-1.89,1.33V117Zm-33.76-5.53,2.63-4.55s3,3.15,4.77,5.39a1.3,1.3,0,0,1-1.41,1.12H160.28l-.42-2Zm2.36,14.14,5.88,5.88a2.75,2.75,0,0,1-1.78,1.26v16c0,.56-3.15,2.38-5.36,2.38h-1.15V143h-3.62v4.34c0,.77-2.79,2.66-5.46,2.66h-.95V121.87l6.62,3.43H170ZM162.49,85.68c15.49-.77,9.61,15.47,3.1,9.8A22.37,22.37,0,0,0,162.17,86Zm8,55.38v-13.8h-3.62v13.8Zm29.19-19.75,6.62,6.65a3.61,3.61,0,0,1-2.1,1.47v18c-.11.49-3.63,2.1-5.94,2.1H197v-3.92h-9.66v1.54c0,.84-3.1,2.94-6.1,2.94h-1V122.15l7.35,3.78h8.87ZM197,143.65V127.89h-9.66v15.76Zm-5.83-39.49c-.63,5-1.37,10-2,13.65h6.15V104.16Z"/><path class="cls-1" d="M254.73,130.55c-.42.84-1,1-2.41,1.19a37.49,37.49,0,0,1-6.72,7.5,92.2,92.2,0,0,0,14.54.91v.91c-3.15,1.33-4.83,4.76-5.46,9.59a53,53,0,0,1-17.8-5.74c-7.66,3.71-16.75,5.39-26.46,5.46l-.16-.84a67.14,67.14,0,0,0,21.06-8.47,35.33,35.33,0,0,1-8.67-11.84h-7.56l-.47-2h28.67L248,122H226v1.26c0,.63-2.25,2.87-6.09,2.87h-1.36V106.89a44.08,44.08,0,0,1-7.83,7.28l-.52-.56c4.2-6.93,8.51-18.2,10.61-29.68l9.45,4.69A1.8,1.8,0,0,1,228.11,90c-.63,1.68-1.31,3.22-2,4.76l.63.28h9.77a6.7,6.7,0,0,1-1.63-1.19,24.12,24.12,0,0,0-2.79-10l.32-.35c11.92.49,11,9.66,7.14,11.55h7.25l3.46-6.23s3.94,4.2,6.25,7.07A1.3,1.3,0,0,1,255.05,97H241.19v6.3h3.94l3.3-5.81s3.78,3.92,6,6.65a1.28,1.28,0,0,1-1.42,1.12H241.19v6.3h4l3.31-5.81s3.78,3.92,6,6.65a1.29,1.29,0,0,1-1.42,1.12h-12v6.58h7.14l3.62-6.37s4.15,4.27,6.56,7.21A1.33,1.33,0,0,1,257,122h-8.92Zm-30.66-1.33c3.1,3.64,7.46,6.16,12.5,7.85a31.88,31.88,0,0,0,6.46-7.85ZM226,97v6.3h7.41V97Zm7.41,8.26H226v6.3h7.41ZM226,120.05h7.41v-6.58H226Z"/><path class="cls-1" d="M305.61,90s4.35,4.41,7,7.49a1.42,1.42,0,0,1-1.52,1.12H263.23l-.42-2h38.91Zm-6.78,32.13,7.35,7.35a3.81,3.81,0,0,1-2.31,1.68v16.46c-.05.49-4.09,2.1-6.61,2.1h-1.37v-4.06H279.2v1.54c0,.91-3.42,3.15-6.57,3.15h-1.05v-27.1l8,4.06h15.7Zm-.68-21.28s4,3.85,6.46,6.58a1.3,1.3,0,0,1-1.47,1.12h-31l-.42-2h22.94Zm.32,10.29s4,3.85,6.45,6.58a1.36,1.36,0,0,1-1.47,1.12H272.16l-.42-2H295Zm-2.58,32.56V129.29H279.2v14.43ZM281.56,84.28c16.59-.63,10.08,16.8,3.15,10.43a21.33,21.33,0,0,0-3.47-10.08Z"/><path class="cls-1" d="M319.62,117.39c0-5.53,3.36-9.94,7.51-9.94s7.46,4.41,7.46,9.94-3.31,10-7.46,10S319.62,122.92,319.62,117.39Zm2,0c0,4,2.46,7.35,5.51,7.35s5.46-3.36,5.46-7.35-2.47-7.28-5.46-7.28S321.62,113.4,321.62,117.39Z"/></g></g></svg>